<svg width="20" height="20" viewBox="0 0 20 20" fill="none" xmlns="http://www.w3.org/2000/svg">
<path d="M18.9789 5.31374C18.7628 4.51048 18.1295 3.87727 17.3264 3.66098C15.8591 3.25952 9.99 3.25952 9.99 3.25952C9.99 3.25952 4.12113 3.25952 2.65388 3.64576C1.86619 3.86182 1.21742 4.51059 1.00136 5.31374C0.615234 6.78087 0.615234 9.82351 0.615234 9.82351C0.615234 9.82351 0.615234 12.8815 1.00136 14.3333C1.21765 15.1364 1.85074 15.7696 2.654 15.9859C4.13658 16.3875 9.99023 16.3875 9.99023 16.3875C9.99023 16.3875 15.8591 16.3875 17.3264 16.0013C18.1296 15.7851 18.7628 15.1519 18.9791 14.3487C19.3651 12.8815 19.3651 9.83896 19.3651 9.83896C19.3651 9.83896 19.3806 6.78087 18.9789 5.31374ZM8.12141 12.6344V7.01261L13.0019 9.82351L8.12141 12.6344Z" fill="#775745"/>
</svg>
