<svg width="16" height="16" viewBox="0 0 16 16" fill="none" xmlns="http://www.w3.org/2000/svg">
<path d="M9.40625 8C9.40625 8.77661 8.77661 9.40625 8 9.40625C7.22339 9.40625 6.59375 8.77661 6.59375 8C6.59375 7.22339 7.22339 6.59375 8 6.59375C8.77661 6.59375 9.40625 7.22339 9.40625 8Z" fill="#775745"/>
<path d="M10.375 3.75H5.625C4.59106 3.75 3.75 4.59106 3.75 5.625V10.375C3.75 11.4089 4.59106 12.25 5.625 12.25H10.375C11.4089 12.25 12.25 11.4089 12.25 10.375V5.625C12.25 4.59106 11.4089 3.75 10.375 3.75ZM8 10.3438C6.70764 10.3438 5.65625 9.29236 5.65625 8C5.65625 6.70764 6.70764 5.65625 8 5.65625C9.29236 5.65625 10.3438 6.70764 10.3438 8C10.3438 9.29236 9.29236 10.3438 8 10.3438ZM10.6875 5.78125C10.4286 5.78125 10.2188 5.57141 10.2188 5.3125C10.2188 5.05359 10.4286 4.84375 10.6875 4.84375C10.9464 4.84375 11.1562 5.05359 11.1562 5.3125C11.1562 5.57141 10.9464 5.78125 10.6875 5.78125Z" fill="#775745"/>
<path d="M11.7812 0H4.21875C1.89258 0 0 1.89258 0 4.21875V11.7812C0 14.1074 1.89258 16 4.21875 16H11.7812C14.1074 16 16 14.1074 16 11.7812V4.21875C16 1.89258 14.1074 0 11.7812 0ZM13.1875 10.375C13.1875 11.9258 11.9258 13.1875 10.375 13.1875H5.625C4.07422 13.1875 2.8125 11.9258 2.8125 10.375V5.625C2.8125 4.07422 4.07422 2.8125 5.625 2.8125H10.375C11.9258 2.8125 13.1875 4.07422 13.1875 5.625V10.375Z" fill="#775745"/>
</svg>
