<svg width="55" height="55" viewBox="0 0 55 55" fill="none" xmlns="http://www.w3.org/2000/svg">
<g clip-path="url(#clip0_9_234)">
<path d="M39.6584 22H38.5005C38.0207 22 37.6321 22.3888 37.6321 22.8684C37.6321 23.348 38.0208 23.7368 38.5005 23.7368H39.6584C40.1381 23.7368 40.5268 23.348 40.5268 22.8684C40.5268 22.3888 40.138 22 39.6584 22Z" fill="#775745"/>
<path d="M33.5795 27.5C33.5795 27.0202 33.1909 26.6316 32.7111 26.6316H14.1847C13.705 26.6316 13.3163 27.0203 13.3163 27.5C13.3163 27.9797 13.705 28.3684 14.1847 28.3684H32.711C33.1907 28.3684 33.5795 27.9797 33.5795 27.5Z" fill="#775745"/>
<path d="M14.1847 44C13.705 44 13.3163 44.3888 13.3163 44.8684C13.3163 45.348 13.705 45.7368 14.1847 45.7368H18.8163C19.2961 45.7368 19.6847 45.348 19.6847 44.8684C19.6847 44.3888 19.2961 44 18.8163 44H14.1847Z" fill="#775745"/>
<path d="M37.1121 46.7789C37.7102 47.5766 38.6624 48.0527 39.6594 48.0527C40.6564 48.0527 41.6087 47.5766 42.2068 46.779L54.3647 30.5685C55.4182 29.164 55.1325 27.1642 53.7277 26.1105C52.3231 25.0572 50.3232 25.3429 49.2699 26.7475L48.6329 27.5968V3.1842C48.633 1.4285 47.2045 0 45.4488 0H8.39645C6.64053 0 5.21214 1.4285 5.21214 3.1842V3.4737H3.18585C1.43004 3.4737 0.00164795 4.9022 0.00164795 6.6579V48.3421C0.00164795 50.0978 1.43004 51.5263 3.18585 51.5263H5.21214V51.8158C5.21214 53.5715 6.64053 55 8.39634 55H45.4487C47.2044 55 48.6329 53.5715 48.6329 51.8158V42.5526C48.6329 42.0729 48.2443 41.6842 47.7645 41.6842C47.2848 41.6842 46.8961 42.0729 46.8961 42.5526V51.8158C46.8961 52.6139 46.2469 53.2632 45.4487 53.2632H8.39645C7.59831 53.2632 6.94905 52.6139 6.94905 51.8158V14.7632C6.94905 14.2835 6.56029 13.8948 6.08065 13.8948C5.60101 13.8948 5.21225 14.2836 5.21225 14.7632V49.7895H3.18585C2.3877 49.7895 1.73844 49.1402 1.73844 48.3421V6.6579C1.73844 5.85976 2.3877 5.2105 3.18585 5.2105H5.21214V11.2894C5.21214 11.7691 5.6009 12.1578 6.08054 12.1578C6.56018 12.1578 6.94894 11.769 6.94894 11.2894V3.1842C6.94894 2.38605 7.5982 1.7368 8.39634 1.7368H45.4487C46.2469 1.7368 46.8961 2.38605 46.8961 3.1842V29.8158C46.8961 29.8464 46.8977 29.8765 46.9007 29.9064L39.6594 39.5615L36.9964 36.0106C36.4862 35.3301 35.7413 34.8891 34.8994 34.7689C34.057 34.6486 33.2187 34.8636 32.5385 35.3738C31.858 35.8841 31.4171 36.6289 31.2969 37.4709C31.1765 38.313 31.3915 39.1513 31.9017 39.8317L37.1121 46.7789ZM33.0161 37.7165C33.0709 37.3339 33.2714 36.9953 33.5807 36.7632C33.8338 36.5733 34.135 36.4735 34.4459 36.4735C34.5148 36.4735 34.5842 36.4784 34.6537 36.4883C35.0363 36.5431 35.3749 36.7435 35.6069 37.0528L38.9647 41.53C39.1287 41.7488 39.3863 41.8775 39.6594 41.8775C39.9326 41.8775 40.1902 41.7488 40.3541 41.53L50.6594 27.7896C51.1382 27.151 52.0473 27.0213 52.6857 27.5001C53.3241 27.979 53.454 28.888 52.9752 29.5264L40.8173 45.737C40.8173 45.737 40.8173 45.737 40.8173 45.7371C40.5454 46.0996 40.1126 46.3159 39.6594 46.3159C39.2063 46.3159 38.7735 46.0995 38.5016 45.737L33.2911 38.7896C33.0591 38.4803 32.9615 38.0992 33.0161 37.7165Z" fill="#775745"/>
<path d="M27.7901 40.2368C27.7901 39.7571 27.4014 39.3684 26.9217 39.3684H14.1847C13.705 39.3684 13.3163 39.7572 13.3163 40.2368C13.3163 40.7164 13.705 41.1052 14.1847 41.1052H26.9215C27.4012 41.1053 27.7901 40.7166 27.7901 40.2368Z" fill="#775745"/>
<path d="M20.5532 15.0526C20.0735 15.0526 19.6848 15.4413 19.6848 15.921C19.6848 16.4008 20.0735 16.7894 20.5532 16.7894H33.2901C33.7699 16.7894 34.1585 16.4008 34.1585 15.921C34.1585 15.4413 33.7699 15.0526 33.2901 15.0526H20.5532Z" fill="#775745"/>
<path d="M14.1847 23.7368H32.7111C33.1908 23.7368 33.5795 23.348 33.5795 22.8684C33.5795 22.3888 33.1908 22 32.7111 22H14.1847C13.705 22 13.3163 22.3888 13.3163 22.8684C13.3163 23.348 13.7051 23.7368 14.1847 23.7368Z" fill="#775745"/>
<path d="M39.6583 10.4211H14.1847C13.705 10.4211 13.3163 10.8098 13.3163 11.2895C13.3163 11.7693 13.705 12.1579 14.1847 12.1579H39.6583C40.1381 12.1579 40.5267 11.7693 40.5267 11.2895C40.5267 10.8098 40.138 10.4211 39.6583 10.4211Z" fill="#775745"/>
<path d="M39.6584 26.6316H38.5005C38.0207 26.6316 37.6321 27.0203 37.6321 27.5C37.6321 27.9797 38.0208 28.3684 38.5005 28.3684H39.6584C40.1381 28.3684 40.5268 27.9796 40.5268 27.5C40.5268 27.0202 40.138 26.6316 39.6584 26.6316Z" fill="#775745"/>
</g>
<defs>
<clipPath id="clip0_9_234">
<rect width="55" height="55" fill="white"/>
</clipPath>
</defs>
</svg>
