<svg width="55" height="55" viewBox="0 0 55 55" fill="none" xmlns="http://www.w3.org/2000/svg">
<path d="M27.5 4.29794C26.9051 4.29794 26.4268 4.77704 26.4268 5.37109C26.4268 5.92399 26.8428 6.38407 27.3926 6.43865C28.029 6.50181 28.5731 6.00606 28.5731 5.37109C28.5731 4.77619 28.094 4.29794 27.5 4.29794Z" fill="#775745"/>
<path d="M48.9844 6.44531C46.0228 6.44531 43.6133 4.03584 43.6133 1.07422C43.6133 0.481035 43.1322 0 42.5391 0H12.4609C11.8678 0 11.3867 0.481035 11.3867 1.07422C11.3867 4.03584 8.97725 6.44531 6.01562 6.44531C5.42244 6.44531 4.94141 6.92635 4.94141 7.51953V25.0497C4.94141 38.7113 13.8461 50.9529 27.1915 54.9548C27.2921 54.9849 27.396 55 27.5 55C27.604 55 27.7081 54.9849 27.8086 54.9547C40.8649 51.0382 50.0586 39.0101 50.0586 25.0497V7.51953C50.0586 6.92635 49.5776 6.44531 48.9844 6.44531ZM47.9102 25.0497C47.9102 37.881 39.7224 48.9932 27.5 52.8025C15.3751 49.0236 7.08984 37.8108 7.08984 25.0497V8.51727C10.3781 8.04482 12.9862 5.43673 13.4587 2.14844H41.5413C42.0138 5.43673 44.6219 8.04482 47.9102 8.51727V25.0497Z" fill="#775745"/>
<path d="M45.1185 9.93545C42.8783 8.95436 41.1042 7.18029 40.1231 4.94012C39.9519 4.54932 39.5658 4.29688 39.1392 4.29688H31.7947C31.2015 4.29688 30.7205 4.77791 30.7205 5.37109C30.7205 5.96428 31.2015 6.44531 31.7947 6.44531H38.4599C39.5948 8.6669 41.3917 10.4636 43.6133 11.5987V25.0497C43.6133 35.5623 37.3024 44.633 27.5 48.264C17.6976 44.6329 11.3867 35.5623 11.3867 25.0497V11.5987C13.6083 10.4636 15.405 8.6669 16.5401 6.44531H23.2053C23.7985 6.44531 24.2795 5.96428 24.2795 5.37109C24.2795 4.77791 23.7985 4.29688 23.2053 4.29688H15.8608C15.4342 4.29688 15.0481 4.54942 14.8769 4.94012C13.8958 7.18029 12.1217 8.95436 9.88152 9.93545C9.49083 10.1067 9.23828 10.4929 9.23828 10.9194V25.0497C9.23828 36.5667 16.3615 46.6042 27.1416 50.4191C27.2575 50.4601 27.3787 50.4806 27.5 50.4806C27.6213 50.4806 27.7425 50.4601 27.8584 50.4191C38.6294 46.6074 45.7617 36.5761 45.7617 25.0497V10.9194C45.7617 10.4928 45.5092 10.1067 45.1185 9.93545Z" fill="#775745"/>
<path d="M27.5 15.6836C22.1691 15.6836 17.832 20.0206 17.832 25.3516C17.832 30.6825 22.1691 35.0195 27.5 35.0195C32.8309 35.0195 37.168 30.6825 37.168 25.3516C37.168 20.0206 32.8309 15.6836 27.5 15.6836ZM27.5 32.8711C23.3537 32.8711 19.9805 29.4978 19.9805 25.3516C19.9805 21.2053 23.3537 17.832 27.5 17.832C31.6463 17.832 35.0195 21.2053 35.0195 25.3516C35.0195 29.4978 31.6463 32.8711 27.5 32.8711Z" fill="#775745"/>
<path d="M32.5564 22.4434C32.1369 22.0241 31.4569 22.0241 31.0372 22.4434L26.4258 27.055L25.0369 25.6662C24.6173 25.2468 23.9373 25.2468 23.5176 25.6662C23.0982 26.0857 23.0982 26.7659 23.5176 27.1855L25.6661 29.3339C25.876 29.5435 26.1508 29.6484 26.4258 29.6484C26.7008 29.6484 26.9756 29.5435 27.1853 29.3338L32.5564 23.9627C32.9759 23.5432 32.9759 22.863 32.5564 22.4434Z" fill="#775745"/>
</svg>
