<svg width="55" height="55" viewBox="0 0 55 55" fill="none" xmlns="http://www.w3.org/2000/svg">
<g clip-path="url(#clip0_9_297)">
<path d="M20.8149 19.5594H24.6744V23.4214C24.6744 23.6493 24.7649 23.8679 24.9261 24.0291C25.0872 24.1903 25.3058 24.2808 25.5337 24.2808H30.3007C30.5286 24.2808 30.7472 24.1903 30.9084 24.0291C31.0695 23.8679 31.1601 23.6493 31.1601 23.4214V19.5594H35.0195C35.2474 19.5594 35.466 19.4688 35.6272 19.3077C35.7884 19.1465 35.8789 18.9279 35.8789 18.7V13.9348C35.8789 13.7069 35.7884 13.4883 35.6272 13.3271C35.466 13.1659 35.2474 13.0754 35.0195 13.0754H31.1601V9.21509C31.1601 8.98717 31.0695 8.76858 30.9084 8.60742C30.7472 8.44625 30.5286 8.35571 30.3007 8.35571H25.5337C25.3058 8.35571 25.0872 8.44625 24.9261 8.60742C24.7649 8.76858 24.6744 8.98717 24.6744 9.21509V13.0754H20.8149C20.587 13.0754 20.3684 13.1659 20.2072 13.3271C20.0461 13.4883 19.9555 13.7069 19.9555 13.9348V18.7C19.9555 18.9279 20.0461 19.1465 20.2072 19.3077C20.3684 19.4688 20.587 19.5594 20.8149 19.5594ZM21.6743 14.7942H25.5337C25.7617 14.7942 25.9803 14.7036 26.1414 14.5424C26.3026 14.3813 26.3931 14.1627 26.3931 13.9348V10.0745H29.4413V13.9348C29.4413 14.1627 29.5319 14.3813 29.693 14.5424C29.8542 14.7036 30.0728 14.7942 30.3007 14.7942H34.1602V17.8406H30.3007C30.0728 17.8406 29.8542 17.9312 29.693 18.0923C29.5319 18.2535 29.4413 18.4721 29.4413 18.7V22.562H26.3931V18.7C26.3931 18.4721 26.3026 18.2535 26.1414 18.0923C25.9803 17.9312 25.7617 17.8406 25.5337 17.8406H21.6743V14.7942Z" fill="#775745"/>
<path d="M49.6409 19.6118C49.185 19.6118 48.7335 19.7019 48.3125 19.877C47.8914 20.0522 47.5092 20.3088 47.1877 20.6322C46.8663 20.9556 46.6119 21.3393 46.4393 21.7614C46.2667 22.1834 46.1792 22.6354 46.182 23.0914L46.2103 27.879L43.578 30.8172C43.4249 30.4478 43.1997 30.1127 42.9155 29.8315C42.6309 29.5447 42.2905 29.3194 41.9153 29.1697C41.5401 29.0199 41.1382 28.9489 40.7344 28.9609C40.331 28.9674 39.9331 29.0555 39.5647 29.22C39.1963 29.3846 38.8651 29.6221 38.5911 29.9183L32.6563 36.2905C32.1852 36.7934 31.9234 37.4569 31.9241 38.1459V48.9543H31.7599C31.532 48.9543 31.3134 49.0448 31.1523 49.206C30.9911 49.3672 30.9006 49.5857 30.9006 49.8137V54.2635C30.9006 54.4914 30.9911 54.71 31.1523 54.8712C31.3134 55.0323 31.532 55.1229 31.7599 55.1229H42.3302C42.5582 55.1229 42.7767 55.0323 42.9379 54.8712C43.0991 54.71 43.1896 54.4914 43.1896 54.2635V49.8137C43.1896 49.5857 43.0991 49.3672 42.9379 49.206C42.7767 49.0448 42.5582 48.9543 42.3302 48.9543H33.6437V38.1459C33.6437 37.8922 33.7402 37.648 33.9135 37.4627L39.8501 31.0896C39.968 30.9628 40.1103 30.8611 40.2685 30.7905C40.4266 30.7199 40.5973 30.682 40.7705 30.6788C41.1179 30.6835 41.4513 30.8167 41.7063 31.0526C41.9436 31.2863 42.0812 31.6028 42.0903 31.9357C42.0995 32.2686 41.9794 32.5921 41.7553 32.8384L37.6406 37.3931L38.9159 38.5455L42.3981 34.6938L42.4084 34.7033L47.7125 28.7822C47.8545 28.6231 47.9323 28.417 47.9308 28.2038L47.9007 23.0845C47.8993 22.8551 47.9434 22.6277 48.0302 22.4154C48.117 22.2031 48.245 22.01 48.4067 21.8473C48.5685 21.6846 48.7608 21.5555 48.9726 21.4674C49.1844 21.3793 49.4115 21.334 49.6409 21.334C50.0948 21.3367 50.5299 21.5157 50.8543 21.8332C51.1787 22.1507 51.367 22.5818 51.3794 23.0355L51.5814 32.1449L40.6244 45.3363C40.4966 45.4905 40.4267 45.6844 40.4267 45.8846V47.0817H42.1455V46.1957L53.1094 32.9923C53.2415 32.8329 53.3117 32.6312 53.307 32.4242L53.0982 22.9934C53.073 22.0914 52.6984 21.2345 52.0533 20.6036C51.4082 19.9726 50.5433 19.617 49.6409 19.6118ZM41.2861 50.673H41.4709V53.4041H32.6193V50.673H41.2861Z" fill="#775745"/>
<path d="M13.6151 48.9543H13.4312C13.2032 48.9543 12.9847 49.0448 12.8235 49.206C12.6623 49.3672 12.5718 49.5857 12.5718 49.8137V54.2635C12.5718 54.4914 12.6623 54.71 12.8235 54.8712C12.9847 55.0323 13.2032 55.1229 13.4312 55.1229H24.0015C24.2294 55.1229 24.448 55.0323 24.6092 54.8712C24.7703 54.71 24.8609 54.4914 24.8609 54.2635V49.8137C24.8609 49.5857 24.7703 49.3672 24.6092 49.206C24.448 49.0448 24.2294 48.9543 24.0015 48.9543H15.3338V45.8846C15.3336 45.6843 15.2634 45.4904 15.1353 45.3363L4.17828 32.1406L4.38281 23.0312C4.39529 22.5775 4.5836 22.1464 4.90798 21.8289C5.23237 21.5114 5.66744 21.3324 6.12133 21.3297C6.35072 21.3296 6.57787 21.3748 6.78968 21.4629C7.0015 21.551 7.19379 21.6801 7.35547 21.8428C7.51716 22.0055 7.64504 22.1987 7.73175 22.411C7.81846 22.6234 7.86229 22.8508 7.8607 23.0802L7.83062 28.1995C7.82985 28.4127 7.9079 28.6187 8.04976 28.7779L13.3538 34.699L13.3633 34.6904L16.8437 38.5421L18.1191 37.3897L14.0044 32.835C13.7804 32.5885 13.6605 32.265 13.6698 31.9321C13.6791 31.5992 13.8168 31.2828 14.0542 31.0492C14.3054 30.8078 14.6408 30.6737 14.9892 30.6754C15.1625 30.6784 15.3334 30.7163 15.4917 30.7869C15.65 30.8575 15.7924 30.9593 15.9105 31.0862L21.8479 37.4601C22.0205 37.6454 22.1164 37.8893 22.116 38.1425V46.8969H23.8348V38.1459C23.8357 37.4574 23.5746 36.7943 23.1043 36.2914L17.1677 29.9174C16.8928 29.6211 16.5607 29.3835 16.1915 29.2191C15.8222 29.0547 15.4235 28.9669 15.0193 28.9609C14.6161 28.9497 14.2149 29.0212 13.8404 29.1709C13.4659 29.3206 13.126 29.5454 12.8416 29.8315C12.5574 30.113 12.3321 30.4484 12.1791 30.818L9.54594 27.879L9.5743 23.0914C9.57713 22.6355 9.48977 22.1835 9.31725 21.7614C9.14473 21.3394 8.89046 20.9556 8.56906 20.6322C8.24766 20.3088 7.86548 20.0522 7.44452 19.8771C7.02355 19.7019 6.57211 19.6118 6.11617 19.6118C5.21475 19.6183 4.35106 19.9745 3.7071 20.6054C3.06315 21.2362 2.6892 22.0923 2.66406 22.9934L2.45265 32.4242C2.44913 32.6311 2.51951 32.8326 2.65117 32.9923L13.6151 46.1957V48.9543ZM22.9762 50.673H23.1412V53.4041H14.2897V50.673H22.9762Z" fill="#775745"/>
<path d="M12.9387 20.3715L27.2611 34.6938C27.4222 34.8549 27.6408 34.9454 27.8687 34.9454C28.0965 34.9454 28.3151 34.8549 28.4762 34.6938L42.7969 20.3715C46.2765 16.8919 47.6575 12.6036 46.5867 8.60491C46.0981 6.79285 45.1425 5.14073 43.8155 3.81365C42.4884 2.48657 40.8363 1.531 39.0242 1.04241C35.2619 0.0360795 31.2331 1.20311 27.8687 4.25475C22.3059 -0.783764 15.7704 0.217407 12.0459 3.94108C8.18469 7.80139 7.25141 14.685 12.9387 20.3715ZM13.261 5.15624C14.9402 3.46586 17.2214 2.51057 19.6041 2.49991C22.0481 2.49991 24.7294 3.51741 27.2611 6.04913C27.4222 6.21023 27.6408 6.30074 27.8687 6.30074C28.0965 6.30074 28.3151 6.21023 28.4762 6.04913C31.5562 2.96999 35.1484 1.78233 38.5859 2.70444C40.1064 3.11449 41.4926 3.91633 42.6061 5.02986C43.7197 6.14339 44.5215 7.52962 44.9315 9.05006C45.8528 12.4876 44.6651 16.078 41.5869 19.1563L27.8687 32.8711L14.1539 19.1563C9.03805 14.0405 10.1045 8.31272 13.261 5.15624Z" fill="#775745"/>
</g>
<defs>
<clipPath id="clip0_9_297">
<rect width="55" height="55" fill="white"/>
</clipPath>
</defs>
</svg>
