<svg width="55" height="55" viewBox="0 0 55 55" fill="none" xmlns="http://www.w3.org/2000/svg">
<path d="M50.0586 37.7051C50.6519 37.7051 51.1328 37.2241 51.1328 36.6309C51.1328 36.0376 50.6519 35.5566 50.0586 35.5566C49.4653 35.5566 48.9844 36.0376 48.9844 36.6309C48.9844 37.2241 49.4653 37.7051 50.0586 37.7051Z" fill="#775745"/>
<path d="M40.7129 13.5352C34.7641 13.5352 30.0305 17.9145 27.6803 20.6116C24.5081 17.1357 20.1972 13.5352 14.2871 13.5352C6.629 13.5352 0 19.7257 0 27.5C0 35.28 6.63448 41.4648 14.2871 41.4648C20.2314 41.4648 24.9618 37.0927 27.3109 34.3997C30.4792 37.8703 34.7885 41.4648 40.7129 41.4648C42.6915 41.4648 44.6204 41.0601 46.4457 40.2618C46.9892 40.0241 47.2372 39.3908 46.9994 38.8472C46.7618 38.3036 46.1283 38.0556 45.5848 38.2934C44.0325 38.9722 42.3934 39.3164 40.7129 39.3164C35.4125 39.3164 31.5538 36.0294 28.0958 32.0493C26.1614 29.8181 23.8998 26.805 23.7625 26.6996C20.8874 23.1343 17.9861 19.9805 14.2871 19.9805C10.0364 19.9805 6.44531 23.424 6.44531 27.5C6.44531 31.576 10.0364 35.0195 14.2871 35.0195C17.7467 35.0195 20.7454 32.1552 23.0889 29.3003C24.0164 30.4713 24.9132 31.6096 25.8847 32.7646C23.8457 35.1608 19.5495 39.3164 14.2871 39.3164C7.7073 39.3164 2.14844 33.9051 2.14844 27.5C2.14844 21.0949 7.7073 15.6836 14.2871 15.6836C19.5971 15.6836 23.4608 19.0101 26.8959 22.9628C28.3609 24.6515 29.7306 26.4445 31.0674 28.1059C33.9991 31.7492 36.9429 35.0195 40.7129 35.0195C44.9636 35.0195 48.5547 31.576 48.5547 27.5C48.5547 23.424 44.9636 19.9805 40.7129 19.9805C37.2522 19.9805 34.2503 22.8497 31.904 25.709C30.9754 24.5384 30.079 23.4014 29.1067 22.2466C31.1468 19.8467 35.4462 15.6836 40.7129 15.6836C47.2927 15.6836 52.8516 21.0949 52.8516 27.5C52.8516 29.1304 52.506 30.7138 51.8245 32.2064C51.5781 32.7459 51.8158 33.3833 52.3555 33.6297C52.8962 33.8768 53.533 33.637 53.7788 33.0987C54.5891 31.3242 55 29.4405 55 27.5C55 19.72 48.3655 13.5352 40.7129 13.5352ZM14.2871 32.8711C11.2542 32.8711 8.59375 30.3613 8.59375 27.5C8.59375 24.6387 11.2542 22.1289 14.2871 22.1289C16.9102 22.1289 19.3075 24.6372 21.7148 27.5853C19.6387 30.1756 17.0111 32.8711 14.2871 32.8711ZM40.7129 22.1289C43.7457 22.1289 46.4062 24.6387 46.4062 27.5C46.4062 30.3613 43.7457 32.8711 40.7129 32.8711C38.0884 32.8711 35.6888 30.3664 33.2793 27.4224C35.3582 24.8283 37.9885 22.1289 40.7129 22.1289Z" fill="#775745"/>
</svg>
