<svg width="20" height="20" viewBox="0 0 20 20" fill="none" xmlns="http://www.w3.org/2000/svg">
<g clip-path="url(#clip0_10_401)">
<path d="M19.8217 14.4726C19.7679 14.3825 19.4354 13.66 17.8353 12.1749C16.1602 10.6198 16.3852 10.8723 18.4028 8.18333C19.6317 6.54571 20.123 5.54564 19.9692 5.11811C19.8229 4.71058 18.9191 4.81808 18.9191 4.81808L15.9139 4.83559C15.9139 4.83559 15.6914 4.80558 15.5251 4.90434C15.3639 5.00185 15.2601 5.22686 15.2601 5.22686C15.2601 5.22686 14.7838 6.49446 14.1488 7.57204C12.8099 9.84596 12.2736 9.96597 12.0549 9.82471C11.5461 9.49593 11.6736 8.50211 11.6736 7.79706C11.6736 5.59314 12.0074 4.67432 11.0223 4.43681C10.6948 4.35805 10.4548 4.30555 9.61845 4.2968C8.54587 4.28554 7.63705 4.30055 7.12327 4.55181C6.78074 4.71933 6.51697 5.09311 6.67823 5.11436C6.877 5.14061 7.32703 5.23562 7.5658 5.56064C7.87457 5.97942 7.86332 6.92199 7.86332 6.92199C7.86332 6.92199 8.04083 9.51593 7.44954 9.83846C7.04326 10.0597 6.48697 9.60844 5.29313 7.54454C4.68184 6.48821 4.21931 5.31937 4.21931 5.31937C4.21931 5.31937 4.13055 5.10186 3.97179 4.9856C3.77927 4.84434 3.50925 4.79933 3.50925 4.79933L0.651546 4.81683C0.651546 4.81683 0.222765 4.82934 0.0652533 5.0156C-0.0747569 5.18186 0.0540025 5.52439 0.0540025 5.52439C0.0540025 5.52439 2.29167 10.7585 4.82435 13.3975C7.14827 15.8164 9.78596 15.6576 9.78596 15.6576H10.981C10.981 15.6576 11.3423 15.6176 11.5261 15.4189C11.6961 15.2364 11.6898 14.8938 11.6898 14.8938C11.6898 14.8938 11.6661 13.29 12.4112 13.0537C13.145 12.8212 14.0875 14.6038 15.0863 15.2901C15.8414 15.8089 16.4152 15.6951 16.4152 15.6951L19.0866 15.6576C19.0866 15.6576 20.4842 15.5714 19.8217 14.4726Z" fill="black"/>
</g>
<defs>
<clipPath id="clip0_10_401">
<rect width="20" height="20" fill="white"/>
</clipPath>
</defs>
</svg>
